<?xml version="1.0" standalone="no"?>
<!DOCTYPE svg PUBLIC "-//W3C//DTD SVG 20010904//EN"
 "http://www.w3.org/TR/2001/REC-SVG-20010904/DTD/svg10.dtd">
<svg version="1.0" xmlns="http://www.w3.org/2000/svg"
 width="700.000000pt" height="700.000000pt" viewBox="0 0 700.000000 700.000000"
 preserveAspectRatio="xMidYMid meet">
<metadata>
Created by potrace 1.11, written by Peter Selinger 2001-2013
</metadata>
<g transform="translate(0.000000,700.000000) scale(0.100000,-0.100000)"
fill="#000000" stroke="none">
<path d="M3368 6995 c-1 -1 -41 -5 -88 -9 -89 -7 -101 -8 -245 -31 -114 -19
-142 -24 -185 -35 -19 -5 -46 -11 -60 -14 -111 -23 -386 -112 -525 -171 -612
-259 -1148 -705 -1514 -1258 -210 -317 -365 -667 -461 -1040 -28 -111 -33
-131 -45 -209 -3 -18 -10 -58 -15 -88 -15 -90 -20 -132 -26 -195 -3 -33 -7
-78 -9 -100 -6 -50 -6 -439 -1 -480 2 -16 7 -61 10 -100 30 -311 107 -626 226
-925 69 -172 205 -442 262 -521 l19 -26 -126 -319 c-70 -175 -133 -332 -140
-349 -22 -49 -136 -336 -152 -380 -8 -22 -20 -53 -27 -70 -13 -27 -228 -567
-255 -638 l-11 -27 38 16 c20 9 150 61 287 115 138 55 260 104 273 109 44 20
72 31 412 166 190 75 359 142 375 149 17 7 73 30 125 50 52 21 113 45 135 55
22 9 61 25 86 35 46 17 47 17 90 -9 269 -156 508 -263 764 -341 66 -20 128
-39 138 -41 42 -10 55 -13 102 -24 28 -7 64 -14 80 -16 17 -3 36 -7 44 -10 8
-2 76 -13 153 -24 369 -53 778 -44 1123 25 29 6 154 32 187 40 104 23 391 120
498 168 480 214 823 455 1172 826 141 151 349 432 449 607 46 81 159 313 195
399 98 238 187 559 219 790 3 23 7 50 9 60 4 19 16 148 22 230 1 22 3 108 4
190 2 210 -11 399 -42 570 -5 33 -12 74 -15 90 -36 230 -147 569 -275 835
-473 989 -1403 1694 -2480 1879 -64 11 -145 23 -180 26 -34 4 -74 9 -88 12
-27 5 -526 13 -532 8z"/>
</g>
</svg>
